<mxfile host="app.diagrams.net" modified="2023-06-29T15:13:38.698Z" agent="Mozilla/5.0 (Windows NT 10.0; Win64; x64) AppleWebKit/537.36 (KHTML, like Gecko) Chrome/114.0.0.0 Safari/537.36" etag="01L8IGizfcK7FdgYAujQ" version="21.3.6" type="device">
  <diagram name="Page-1" id="J8sD0P-VLiAFO0Mi7lsR">
    <mxGraphModel dx="4269" dy="-627" grid="1" gridSize="10" guides="1" tooltips="1" connect="1" arrows="1" fold="1" page="1" pageScale="1" pageWidth="850" pageHeight="1100" math="0" shadow="0">
      <root>
        <mxCell id="0" />
        <mxCell id="1" parent="0" />
        <mxCell id="e3agSbo70QrFWaM-nMXp-7" value="Desenvolvedora = {&lt;u&gt;&lt;b&gt;Nome&lt;/b&gt;&lt;/u&gt;, NomePresidente, DataFundacao, Website, Pais, Cidade, Estado}" style="text;html=1;align=center;verticalAlign=middle;resizable=0;points=[];autosize=1;strokeColor=none;fillColor=none;" parent="1" vertex="1">
          <mxGeometry x="-2430" y="2053.76" width="520" height="30" as="geometry" />
        </mxCell>
        <mxCell id="e3agSbo70QrFWaM-nMXp-8" value="Distribuidora = {&lt;u style=&quot;font-weight: bold;&quot;&gt;Nome,&lt;/u&gt;&lt;b&gt;&amp;nbsp;&lt;/b&gt;DataFundacao, Website, NomePresidente, Pais, Cidade, Estado}" style="text;html=1;align=center;verticalAlign=middle;resizable=0;points=[];autosize=1;strokeColor=none;fillColor=none;" parent="1" vertex="1">
          <mxGeometry x="-2310" y="2120" width="500" height="30" as="geometry" />
        </mxCell>
        <mxCell id="e3agSbo70QrFWaM-nMXp-9" value="FundadorDistribuidora = {&lt;u style=&quot;font-weight: bold;&quot;&gt;NomeDistribuidora,&lt;/u&gt;&amp;nbsp;&lt;b&gt;&lt;u&gt;NomeFundador&lt;/u&gt;&lt;/b&gt;}" style="text;html=1;align=center;verticalAlign=middle;resizable=0;points=[];autosize=1;strokeColor=none;fillColor=none;" parent="1" vertex="1">
          <mxGeometry x="-2300" y="2210" width="370" height="30" as="geometry" />
        </mxCell>
        <mxCell id="e3agSbo70QrFWaM-nMXp-10" value="FundadorDesenvolvedora= {&lt;u style=&quot;font-weight: bold;&quot;&gt;NomeDesenvolvedora,&lt;/u&gt;&amp;nbsp;&lt;b&gt;&lt;u&gt;NomeFundador&lt;/u&gt;&lt;/b&gt;}" style="text;html=1;align=center;verticalAlign=middle;resizable=0;points=[];autosize=1;strokeColor=none;fillColor=none;" parent="1" vertex="1">
          <mxGeometry x="-2530" y="2320" width="400" height="30" as="geometry" />
        </mxCell>
        <mxCell id="e3agSbo70QrFWaM-nMXp-11" value="Jogo = {&lt;b&gt;&lt;u&gt;Nome&lt;/u&gt;&lt;/b&gt;, &lt;b style=&quot;text-decoration-line: underline;&quot;&gt;NomeDesenvolvedora, NomeDistribuidora,&lt;/b&gt;&amp;nbsp;Preco, Classificacao, Linguagens, Genero, Edicao, Lancamento, IdiomaDasLegendas, Preco, Sinopse}" style="text;html=1;align=center;verticalAlign=middle;resizable=0;points=[];autosize=1;strokeColor=none;fillColor=default;" parent="1" vertex="1">
          <mxGeometry x="-2230" y="2580" width="900" height="30" as="geometry" />
        </mxCell>
        <mxCell id="e3agSbo70QrFWaM-nMXp-12" value="Conteudo = {&lt;b style=&quot;border-color: var(--border-color);&quot;&gt;&lt;u style=&quot;border-color: var(--border-color);&quot;&gt;Nome&lt;/u&gt;&lt;/b&gt;, Preco, Descricao, NomeJogo}" style="text;html=1;align=center;verticalAlign=middle;resizable=0;points=[];autosize=1;strokeColor=none;fillColor=none;" parent="1" vertex="1">
          <mxGeometry x="-2515" y="2700" width="290" height="30" as="geometry" />
        </mxCell>
        <mxCell id="e3agSbo70QrFWaM-nMXp-13" value="Produto = {&lt;span style=&quot;border-color: var(--border-color);&quot;&gt;&lt;u style=&quot;font-weight: bold; border-color: var(--border-color);&quot;&gt;Nome&lt;/u&gt;&lt;span style=&quot;border-color: var(--border-color);&quot;&gt;, Tipo&lt;/span&gt;&lt;/span&gt;}" style="text;html=1;align=center;verticalAlign=middle;resizable=0;points=[];autosize=1;strokeColor=none;fillColor=none;" parent="1" vertex="1">
          <mxGeometry x="-2545" y="2500" width="150" height="30" as="geometry" />
        </mxCell>
        <mxCell id="e3agSbo70QrFWaM-nMXp-14" value="Trofeu = {&lt;span style=&quot;border-color: var(--border-color);&quot;&gt;&lt;u style=&quot;font-weight: bold; border-color: var(--border-color);&quot;&gt;IDTrofeu&lt;/u&gt;&lt;span style=&quot;border-color: var(--border-color);&quot;&gt;, Descricao, Tipo, NomeJogo&lt;/span&gt;&lt;/span&gt;}" style="text;html=1;align=center;verticalAlign=middle;resizable=0;points=[];autosize=1;strokeColor=none;fillColor=none;" parent="1" vertex="1">
          <mxGeometry x="-2140" y="2750" width="280" height="30" as="geometry" />
        </mxCell>
        <mxCell id="e3agSbo70QrFWaM-nMXp-15" value="Plataforma = {&lt;span style=&quot;border-color: var(--border-color);&quot;&gt;&lt;u style=&quot;font-weight: bold; border-color: var(--border-color);&quot;&gt;Nome&lt;/u&gt;&lt;span style=&quot;border-color: var(--border-color);&quot;&gt;&lt;u&gt;,&amp;nbsp;&lt;/u&gt;&lt;/span&gt;&lt;span style=&quot;border-color: var(--border-color);&quot;&gt;&lt;b&gt;&lt;u&gt;Versao&lt;/u&gt;&lt;/b&gt;, Tipo&lt;/span&gt;&lt;/span&gt;}" style="text;html=1;align=center;verticalAlign=middle;resizable=0;points=[];autosize=1;strokeColor=none;fillColor=none;" parent="1" vertex="1">
          <mxGeometry x="-2985" y="2240" width="210" height="30" as="geometry" />
        </mxCell>
        <mxCell id="e3agSbo70QrFWaM-nMXp-16" value="RegistroJogatina = {&lt;span style=&quot;border-color: var(--border-color);&quot;&gt;&lt;u style=&quot;font-weight: bold; border-color: var(--border-color);&quot;&gt;IDRegistro&lt;/u&gt;&lt;span style=&quot;border-color: var(--border-color);&quot;&gt;, Data, TempoJogado, Login, NomeJogo, NumeroDeSerie, CodigoDeAtivacao&lt;/span&gt;&lt;/span&gt;}" style="text;html=1;align=center;verticalAlign=middle;resizable=0;points=[];autosize=1;strokeColor=none;fillColor=none;" parent="1" vertex="1">
          <mxGeometry x="-2490" y="3098.75" width="610" height="30" as="geometry" />
        </mxCell>
        <mxCell id="e3agSbo70QrFWaM-nMXp-17" value="Console = {&lt;span style=&quot;border-color: var(--border-color);&quot;&gt;&lt;u style=&quot;font-weight: bold; border-color: var(--border-color);&quot;&gt;NumeroDeSerie&lt;/u&gt;&lt;span style=&quot;border-color: var(--border-color);&quot;&gt;,&amp;nbsp;&lt;u style=&quot;border-color: var(--border-color); font-weight: bold;&quot;&gt;NomePlataforma&lt;/u&gt;,&amp;nbsp;&lt;b&gt;&lt;u&gt;VersaoPlataforma&lt;/u&gt;&lt;/b&gt;, LoginConta, Tipo&lt;/span&gt;&lt;/span&gt;}" style="text;html=1;align=center;verticalAlign=middle;resizable=0;points=[];autosize=1;strokeColor=none;fillColor=none;" parent="1" vertex="1">
          <mxGeometry x="-3080" y="2350" width="490" height="30" as="geometry" />
        </mxCell>
        <mxCell id="e3agSbo70QrFWaM-nMXp-32" value="Instalacao = {&lt;span style=&quot;border-color: var(--border-color);&quot;&gt;&lt;u style=&quot;font-weight: bold; border-color: var(--border-color);&quot;&gt;NumeroDeSerie&lt;/u&gt;&lt;span style=&quot;border-color: var(--border-color);&quot;&gt;, &lt;u style=&quot;font-weight: bold;&quot;&gt;CodigoDeAtivacao&lt;/u&gt;, &lt;b&gt;&lt;u&gt;NomeJogo,&lt;/u&gt;&lt;/b&gt;&lt;/span&gt;&lt;/span&gt;}" style="text;html=1;align=center;verticalAlign=middle;resizable=0;points=[];autosize=1;strokeColor=none;fillColor=none;" parent="1" vertex="1">
          <mxGeometry x="-2925" y="2829.06" width="380" height="30" as="geometry" />
        </mxCell>
        <mxCell id="e3agSbo70QrFWaM-nMXp-34" value="Compra = {&lt;span style=&quot;border-color: var(--border-color);&quot;&gt;&lt;u style=&quot;font-weight: bold; border-color: var(--border-color);&quot;&gt;IDCompra&lt;/u&gt;&lt;span style=&quot;border-color: var(--border-color);&quot;&gt;, Login&lt;u style=&quot;font-weight: bold;&quot;&gt;,&lt;/u&gt;&amp;nbsp;Data, PrecoTotal&lt;/span&gt;&lt;/span&gt;}" style="text;html=1;align=center;verticalAlign=middle;resizable=0;points=[];autosize=1;strokeColor=none;fillColor=none;" parent="1" vertex="1">
          <mxGeometry x="-1679.9999999999998" y="2180" width="280" height="30" as="geometry" />
        </mxCell>
        <mxCell id="e3agSbo70QrFWaM-nMXp-35" value="Usuario = {&lt;span style=&quot;border-color: var(--border-color);&quot;&gt;&lt;u style=&quot;font-weight: bold; border-color: var(--border-color);&quot;&gt;CPF&lt;/u&gt;&lt;span style=&quot;border-color: var(--border-color);&quot;&gt;, Nome, &lt;b&gt;&lt;u&gt;Email&lt;/u&gt;&lt;/b&gt;, Pais, DataDeNascimento, Idade&lt;/span&gt;&lt;/span&gt;}" style="text;html=1;align=center;verticalAlign=middle;resizable=0;points=[];autosize=1;strokeColor=none;fillColor=none;" parent="1" vertex="1">
          <mxGeometry x="-1784.9999999999998" y="1620" width="370" height="30" as="geometry" />
        </mxCell>
        <mxCell id="e3agSbo70QrFWaM-nMXp-36" value="Principal = {&lt;span style=&quot;border-color: var(--border-color);&quot;&gt;&lt;u style=&quot;font-weight: bold; border-color: var(--border-color);&quot;&gt;Login&lt;/u&gt;&lt;span style=&quot;border-color: var(--border-color);&quot;&gt;, CPFUsuario, Email, PerguntaSeguranca, Apelido, Senha, UsuarioProprietario, RespostaPerguntaSeguranca&lt;/span&gt;&lt;/span&gt;}" style="text;html=1;align=center;verticalAlign=middle;resizable=0;points=[];autosize=1;strokeColor=none;fillColor=none;" parent="1" vertex="1">
          <mxGeometry x="-1930" y="1740" width="710" height="30" as="geometry" />
        </mxCell>
        <mxCell id="e3agSbo70QrFWaM-nMXp-37" value="Conta = {&lt;span style=&quot;border-color: var(--border-color);&quot;&gt;&lt;u style=&quot;font-weight: bold; border-color: var(--border-color);&quot;&gt;Login&lt;/u&gt;&lt;span style=&quot;border-color: var(--border-color);&quot;&gt;, Tipo&lt;/span&gt;&lt;/span&gt;}" style="text;html=1;align=center;verticalAlign=middle;resizable=0;points=[];autosize=1;strokeColor=none;fillColor=none;" parent="1" vertex="1">
          <mxGeometry x="-1990" y="1540" width="140" height="30" as="geometry" />
        </mxCell>
        <mxCell id="e3agSbo70QrFWaM-nMXp-38" value="SubConta = {&lt;span style=&quot;border-color: var(--border-color);&quot;&gt;&lt;u style=&quot;font-weight: bold; border-color: var(--border-color);&quot;&gt;Login&lt;/u&gt;&lt;span style=&quot;border-color: var(--border-color);&quot;&gt;, LoginPrincipal, PermitidoConteudosImproprios, PermitidoComprasCartao, PerguntaSeguranca, Apelido, Senha, UsuarioProprietario, RespostaPerguntaSeguranca&lt;/span&gt;&lt;/span&gt;}" style="text;html=1;align=center;verticalAlign=middle;resizable=0;points=[];autosize=1;strokeColor=none;fillColor=none;" parent="1" vertex="1">
          <mxGeometry x="-2100" y="1850" width="1000" height="30" as="geometry" />
        </mxCell>
        <mxCell id="e3agSbo70QrFWaM-nMXp-42" value="Cartao = {&lt;b&gt;&lt;u&gt;LoginPrincipal&lt;/u&gt;&lt;/b&gt;, DataVecimento, NomeDoCartao, &lt;u&gt;&lt;b&gt;NumeroCartao&lt;/b&gt;&lt;/u&gt;, Bandeira}" style="text;html=1;align=center;verticalAlign=middle;resizable=0;points=[];autosize=1;strokeColor=none;fillColor=none;" parent="1" vertex="1">
          <mxGeometry x="-1815" y="1804.38" width="490" height="30" as="geometry" />
        </mxCell>
        <mxCell id="e3agSbo70QrFWaM-nMXp-43" value="SolicitaAmizade = {DataAceitacao, DataSolicitacao,&amp;nbsp;&lt;u style=&quot;font-weight: bold;&quot;&gt;LoginSolicitante,&lt;/u&gt;&amp;nbsp;&lt;u style=&quot;font-weight: bold;&quot;&gt;LoginSolicitado&lt;/u&gt;}" style="text;html=1;align=center;verticalAlign=middle;resizable=0;points=[];autosize=1;strokeColor=none;fillColor=none;" parent="1" vertex="1">
          <mxGeometry x="-2640" y="1884.38" width="500" height="30" as="geometry" />
        </mxCell>
        <mxCell id="e3agSbo70QrFWaM-nMXp-44" value="DesfazAmizade = {DataRemocao,&amp;nbsp;&lt;u style=&quot;font-weight: bold;&quot;&gt;LoginSolicitante,&lt;/u&gt;&amp;nbsp;&lt;u style=&quot;font-weight: bold;&quot;&gt;LoginSolicitado&lt;/u&gt;}" style="text;html=1;align=center;verticalAlign=middle;resizable=0;points=[];autosize=1;strokeColor=none;fillColor=none;" parent="1" vertex="1">
          <mxGeometry x="-2440" y="1960" width="400" height="30" as="geometry" />
        </mxCell>
        <mxCell id="e3agSbo70QrFWaM-nMXp-55" style="edgeStyle=orthogonalEdgeStyle;rounded=1;orthogonalLoop=1;jettySize=auto;html=1;exitX=0.1;exitY=0.5;exitDx=0;exitDy=0;exitPerimeter=0;entryX=0.078;entryY=1;entryDx=0;entryDy=0;entryPerimeter=0;" parent="1" source="e3agSbo70QrFWaM-nMXp-54" target="e3agSbo70QrFWaM-nMXp-11" edge="1">
          <mxGeometry relative="1" as="geometry">
            <mxPoint x="-2170" y="2650" as="targetPoint" />
            <Array as="points">
              <mxPoint x="-2270" y="2697" />
              <mxPoint x="-2270" y="2650" />
              <mxPoint x="-2160" y="2650" />
            </Array>
          </mxGeometry>
        </mxCell>
        <mxCell id="e3agSbo70QrFWaM-nMXp-54" value="" style="shape=curlyBracket;whiteSpace=wrap;html=1;rounded=1;labelPosition=left;verticalLabelPosition=middle;align=right;verticalAlign=middle;rotation=90;" parent="1" vertex="1">
          <mxGeometry x="-2275" y="2678.13" width="15" height="50" as="geometry" />
        </mxCell>
        <mxCell id="e3agSbo70QrFWaM-nMXp-57" style="edgeStyle=orthogonalEdgeStyle;rounded=1;orthogonalLoop=1;jettySize=auto;html=1;entryX=0.076;entryY=1.066;entryDx=0;entryDy=0;entryPerimeter=0;" parent="1" source="e3agSbo70QrFWaM-nMXp-56" target="e3agSbo70QrFWaM-nMXp-11" edge="1">
          <mxGeometry relative="1" as="geometry" />
        </mxCell>
        <mxCell id="e3agSbo70QrFWaM-nMXp-56" value="" style="shape=curlyBracket;whiteSpace=wrap;html=1;rounded=1;labelPosition=left;verticalLabelPosition=middle;align=right;verticalAlign=middle;rotation=90;" parent="1" vertex="1">
          <mxGeometry x="-1910" y="2725" width="15" height="50" as="geometry" />
        </mxCell>
        <mxCell id="e3agSbo70QrFWaM-nMXp-61" style="edgeStyle=orthogonalEdgeStyle;rounded=0;orthogonalLoop=1;jettySize=auto;html=1;entryX=0.571;entryY=1;entryDx=0;entryDy=0;entryPerimeter=0;" parent="1" source="e3agSbo70QrFWaM-nMXp-59" target="e3agSbo70QrFWaM-nMXp-13" edge="1">
          <mxGeometry relative="1" as="geometry" />
        </mxCell>
        <mxCell id="e3agSbo70QrFWaM-nMXp-59" value="" style="shape=curlyBracket;whiteSpace=wrap;html=1;rounded=1;labelPosition=left;verticalLabelPosition=middle;align=right;verticalAlign=middle;rotation=90;" parent="1" vertex="1">
          <mxGeometry x="-2430.0000000000005" y="2678.13" width="13.13" height="38.75" as="geometry" />
        </mxCell>
        <mxCell id="e3agSbo70QrFWaM-nMXp-62" style="edgeStyle=orthogonalEdgeStyle;rounded=1;orthogonalLoop=1;jettySize=auto;html=1;entryX=0.561;entryY=1.002;entryDx=0;entryDy=0;entryPerimeter=0;" parent="1" target="e3agSbo70QrFWaM-nMXp-13" edge="1">
          <mxGeometry relative="1" as="geometry">
            <mxPoint x="-2158" y="2570" as="sourcePoint" />
            <Array as="points">
              <mxPoint x="-2461" y="2560" />
            </Array>
          </mxGeometry>
        </mxCell>
        <mxCell id="e3agSbo70QrFWaM-nMXp-60" value="" style="shape=curlyBracket;whiteSpace=wrap;html=1;rounded=1;labelPosition=left;verticalLabelPosition=middle;align=right;verticalAlign=middle;rotation=90;" parent="1" vertex="1">
          <mxGeometry x="-2165" y="2560" width="13.13" height="38.75" as="geometry" />
        </mxCell>
        <mxCell id="e3agSbo70QrFWaM-nMXp-66" style="edgeStyle=orthogonalEdgeStyle;rounded=1;orthogonalLoop=1;jettySize=auto;html=1;" parent="1" source="e3agSbo70QrFWaM-nMXp-63" target="e3agSbo70QrFWaM-nMXp-7" edge="1">
          <mxGeometry relative="1" as="geometry">
            <mxPoint x="-2290" y="2090" as="targetPoint" />
            <Array as="points">
              <mxPoint x="-2303" y="2196" />
              <mxPoint x="-2340" y="2196" />
              <mxPoint x="-2340" y="2100" />
              <mxPoint x="-2290" y="2100" />
            </Array>
          </mxGeometry>
        </mxCell>
        <mxCell id="e3agSbo70QrFWaM-nMXp-63" value="" style="shape=curlyBracket;whiteSpace=wrap;html=1;rounded=1;labelPosition=left;verticalLabelPosition=middle;align=right;verticalAlign=middle;rotation=90;" parent="1" vertex="1">
          <mxGeometry x="-2310" y="2260" width="13.13" height="118.75" as="geometry" />
        </mxCell>
        <mxCell id="e3agSbo70QrFWaM-nMXp-69" style="edgeStyle=orthogonalEdgeStyle;rounded=1;orthogonalLoop=1;jettySize=auto;html=1;entryX=0.25;entryY=0.972;entryDx=0;entryDy=0;entryPerimeter=0;" parent="1" source="e3agSbo70QrFWaM-nMXp-68" target="e3agSbo70QrFWaM-nMXp-8" edge="1">
          <mxGeometry relative="1" as="geometry" />
        </mxCell>
        <mxCell id="e3agSbo70QrFWaM-nMXp-68" value="" style="shape=curlyBracket;whiteSpace=wrap;html=1;rounded=1;labelPosition=left;verticalLabelPosition=middle;align=right;verticalAlign=middle;rotation=90;" parent="1" vertex="1">
          <mxGeometry x="-2106.25" y="2156.88" width="13.13" height="105" as="geometry" />
        </mxCell>
        <mxCell id="e3agSbo70QrFWaM-nMXp-72" style="edgeStyle=orthogonalEdgeStyle;rounded=1;orthogonalLoop=1;jettySize=auto;html=1;entryX=0.143;entryY=0.971;entryDx=0;entryDy=0;entryPerimeter=0;" parent="1" source="e3agSbo70QrFWaM-nMXp-71" target="e3agSbo70QrFWaM-nMXp-36" edge="1">
          <mxGeometry relative="1" as="geometry" />
        </mxCell>
        <mxCell id="e3agSbo70QrFWaM-nMXp-71" value="" style="shape=curlyBracket;whiteSpace=wrap;html=1;rounded=1;labelPosition=left;verticalLabelPosition=middle;align=right;verticalAlign=middle;rotation=90;" parent="1" vertex="1">
          <mxGeometry x="-1946.56" y="1819.38" width="13.13" height="70" as="geometry" />
        </mxCell>
        <mxCell id="e3agSbo70QrFWaM-nMXp-94" style="edgeStyle=orthogonalEdgeStyle;rounded=1;orthogonalLoop=1;jettySize=auto;html=1;" parent="1" source="e3agSbo70QrFWaM-nMXp-74" target="e3agSbo70QrFWaM-nMXp-37" edge="1">
          <mxGeometry relative="1" as="geometry">
            <Array as="points">
              <mxPoint x="-1834" y="1610" />
              <mxPoint x="-1920" y="1610" />
            </Array>
          </mxGeometry>
        </mxCell>
        <mxCell id="e3agSbo70QrFWaM-nMXp-74" value="" style="shape=curlyBracket;whiteSpace=wrap;html=1;rounded=1;labelPosition=left;verticalLabelPosition=middle;align=right;verticalAlign=middle;rotation=90;" parent="1" vertex="1">
          <mxGeometry x="-1840.94" y="1724.69" width="13.13" height="39.38" as="geometry" />
        </mxCell>
        <mxCell id="jU4q8psLORbUXHxAr8m7-4" style="edgeStyle=orthogonalEdgeStyle;rounded=0;orthogonalLoop=1;jettySize=auto;html=1;" parent="1" source="e3agSbo70QrFWaM-nMXp-76" edge="1">
          <mxGeometry relative="1" as="geometry">
            <mxPoint x="-2000" y="1610" as="targetPoint" />
            <Array as="points">
              <mxPoint x="-2000" y="1750" />
            </Array>
          </mxGeometry>
        </mxCell>
        <mxCell id="e3agSbo70QrFWaM-nMXp-76" value="" style="shape=curlyBracket;whiteSpace=wrap;html=1;rounded=1;labelPosition=left;verticalLabelPosition=middle;align=right;verticalAlign=middle;rotation=90;" parent="1" vertex="1">
          <mxGeometry x="-2006.56" y="1832.19" width="13.13" height="44.38" as="geometry" />
        </mxCell>
        <mxCell id="e3agSbo70QrFWaM-nMXp-98" style="edgeStyle=orthogonalEdgeStyle;rounded=1;orthogonalLoop=1;jettySize=auto;html=1;entryX=0.141;entryY=0.934;entryDx=0;entryDy=0;entryPerimeter=0;" parent="1" source="e3agSbo70QrFWaM-nMXp-97" target="e3agSbo70QrFWaM-nMXp-36" edge="1">
          <mxGeometry relative="1" as="geometry" />
        </mxCell>
        <mxCell id="e3agSbo70QrFWaM-nMXp-97" value="" style="shape=curlyBracket;whiteSpace=wrap;html=1;rounded=1;labelPosition=left;verticalLabelPosition=middle;align=right;verticalAlign=middle;rotation=90;" parent="1" vertex="1">
          <mxGeometry x="-1713" y="1770" width="13.13" height="79.38" as="geometry" />
        </mxCell>
        <mxCell id="e3agSbo70QrFWaM-nMXp-100" style="edgeStyle=orthogonalEdgeStyle;rounded=1;orthogonalLoop=1;jettySize=auto;html=1;entryX=0.227;entryY=0.984;entryDx=0;entryDy=0;entryPerimeter=0;" parent="1" source="e3agSbo70QrFWaM-nMXp-99" target="e3agSbo70QrFWaM-nMXp-35" edge="1">
          <mxGeometry relative="1" as="geometry" />
        </mxCell>
        <mxCell id="e3agSbo70QrFWaM-nMXp-99" value="" style="shape=curlyBracket;whiteSpace=wrap;html=1;rounded=1;labelPosition=left;verticalLabelPosition=middle;align=right;verticalAlign=middle;rotation=90;" parent="1" vertex="1">
          <mxGeometry x="-1785.31" y="1714.69" width="13.13" height="59.38" as="geometry" />
        </mxCell>
        <mxCell id="e3agSbo70QrFWaM-nMXp-106" style="edgeStyle=orthogonalEdgeStyle;rounded=1;orthogonalLoop=1;jettySize=auto;html=1;" parent="1" source="e3agSbo70QrFWaM-nMXp-102" target="e3agSbo70QrFWaM-nMXp-37" edge="1">
          <mxGeometry relative="1" as="geometry">
            <mxPoint x="-1920" y="1650" as="targetPoint" />
            <Array as="points">
              <mxPoint x="-2253" y="1780" />
              <mxPoint x="-2253" y="1780" />
              <mxPoint x="-2253" y="1610" />
              <mxPoint x="-1920" y="1610" />
            </Array>
          </mxGeometry>
        </mxCell>
        <mxCell id="e3agSbo70QrFWaM-nMXp-102" value="" style="shape=curlyBracket;whiteSpace=wrap;html=1;rounded=1;labelPosition=left;verticalLabelPosition=middle;align=right;verticalAlign=middle;rotation=90;" parent="1" vertex="1">
          <mxGeometry x="-2260" y="1790" width="13.13" height="179.38" as="geometry" />
        </mxCell>
        <mxCell id="e3agSbo70QrFWaM-nMXp-108" style="edgeStyle=orthogonalEdgeStyle;rounded=1;orthogonalLoop=1;jettySize=auto;html=1;" parent="1" source="e3agSbo70QrFWaM-nMXp-103" edge="1">
          <mxGeometry relative="1" as="geometry">
            <mxPoint x="-2060" y="1610" as="targetPoint" />
            <Array as="points">
              <mxPoint x="-2150" y="1780" />
              <mxPoint x="-2060" y="1780" />
              <mxPoint x="-2060" y="1630" />
            </Array>
          </mxGeometry>
        </mxCell>
        <mxCell id="e3agSbo70QrFWaM-nMXp-103" value="" style="shape=curlyBracket;whiteSpace=wrap;html=1;rounded=1;labelPosition=left;verticalLabelPosition=middle;align=right;verticalAlign=middle;rotation=90;" parent="1" vertex="1">
          <mxGeometry x="-2156.57" y="1874.38" width="13.13" height="179.38" as="geometry" />
        </mxCell>
        <mxCell id="e3agSbo70QrFWaM-nMXp-109" value="ContaObtemTrofeu= {&lt;span style=&quot;border-color: var(--border-color);&quot;&gt;&lt;u style=&quot;font-weight: bold; border-color: var(--border-color);&quot;&gt;IDTrofeu&lt;/u&gt;&lt;span style=&quot;border-color: var(--border-color);&quot;&gt;, &lt;b&gt;&lt;u&gt;Login&lt;/u&gt;&lt;/b&gt;, Data&lt;/span&gt;&lt;/span&gt;}" style="text;html=1;align=center;verticalAlign=middle;resizable=0;points=[];autosize=1;strokeColor=none;fillColor=none;" parent="1" vertex="1">
          <mxGeometry x="-1670.0000000000005" y="2692.5" width="260" height="30" as="geometry" />
        </mxCell>
        <mxCell id="e3agSbo70QrFWaM-nMXp-111" style="edgeStyle=orthogonalEdgeStyle;rounded=1;orthogonalLoop=1;jettySize=auto;html=1;entryX=0.308;entryY=0.995;entryDx=0;entryDy=0;entryPerimeter=0;" parent="1" target="e3agSbo70QrFWaM-nMXp-14" edge="1">
          <mxGeometry relative="1" as="geometry">
            <mxPoint x="-1523" y="2740" as="sourcePoint" />
            <Array as="points">
              <mxPoint x="-1523" y="2741" />
              <mxPoint x="-1691" y="2741" />
              <mxPoint x="-1691" y="2800" />
              <mxPoint x="-2054" y="2800" />
            </Array>
          </mxGeometry>
        </mxCell>
        <mxCell id="e3agSbo70QrFWaM-nMXp-110" value="" style="shape=curlyBracket;whiteSpace=wrap;html=1;rounded=1;labelPosition=left;verticalLabelPosition=middle;align=right;verticalAlign=middle;rotation=-90;" parent="1" vertex="1">
          <mxGeometry x="-1529.37" y="2710" width="13.13" height="40" as="geometry" />
        </mxCell>
        <mxCell id="e3agSbo70QrFWaM-nMXp-113" style="edgeStyle=orthogonalEdgeStyle;rounded=1;orthogonalLoop=1;jettySize=auto;html=1;entryX=0.643;entryY=0;entryDx=0;entryDy=0;entryPerimeter=0;" parent="1" source="e3agSbo70QrFWaM-nMXp-112" target="e3agSbo70QrFWaM-nMXp-37" edge="1">
          <mxGeometry relative="1" as="geometry">
            <mxPoint x="-1420" y="2300" as="targetPoint" />
            <Array as="points">
              <mxPoint x="-1473" y="2650" />
              <mxPoint x="-1090" y="2650" />
              <mxPoint x="-1090" y="1520" />
              <mxPoint x="-1900" y="1520" />
            </Array>
          </mxGeometry>
        </mxCell>
        <mxCell id="e3agSbo70QrFWaM-nMXp-112" value="" style="shape=curlyBracket;whiteSpace=wrap;html=1;rounded=1;labelPosition=left;verticalLabelPosition=middle;align=right;verticalAlign=middle;rotation=90;" parent="1" vertex="1">
          <mxGeometry x="-1480" y="2670" width="13.13" height="40" as="geometry" />
        </mxCell>
        <mxCell id="e3agSbo70QrFWaM-nMXp-114" value="JogoLancadoPlataforma= {&lt;span style=&quot;border-color: var(--border-color);&quot;&gt;&lt;span style=&quot;border-color: var(--border-color);&quot;&gt;&lt;u style=&quot;border-color: var(--border-color); font-weight: bold;&quot;&gt;NomePlataforma&lt;/u&gt;,&amp;nbsp;&lt;b&gt;&lt;u&gt;VersaoPlataforma&lt;/u&gt;&lt;/b&gt;, &lt;b&gt;&lt;u&gt;NomeJogo&lt;/u&gt;&lt;/b&gt;&lt;/span&gt;&lt;/span&gt;}" style="text;html=1;align=center;verticalAlign=middle;resizable=0;points=[];autosize=1;strokeColor=none;fillColor=none;" parent="1" vertex="1">
          <mxGeometry x="-3380" y="2460" width="440" height="30" as="geometry" />
        </mxCell>
        <mxCell id="e3agSbo70QrFWaM-nMXp-115" value="ContaPossuiJogo= {&lt;span style=&quot;border-color: var(--border-color);&quot;&gt;&lt;u style=&quot;font-weight: bold; border-color: var(--border-color);&quot;&gt;NomeJogo&lt;/u&gt;&lt;span style=&quot;border-color: var(--border-color);&quot;&gt;,&amp;nbsp;&lt;u style=&quot;border-color: var(--border-color); font-weight: bold;&quot;&gt;Login&lt;/u&gt;, TotalHorasJogadas&lt;/span&gt;&lt;/span&gt;}" style="text;html=1;align=center;verticalAlign=middle;resizable=0;points=[];autosize=1;strokeColor=none;fillColor=none;" parent="1" vertex="1">
          <mxGeometry x="-2390" y="2875.3100000000004" width="350" height="30" as="geometry" />
        </mxCell>
        <mxCell id="e3agSbo70QrFWaM-nMXp-121" style="edgeStyle=orthogonalEdgeStyle;rounded=0;orthogonalLoop=1;jettySize=auto;html=1;entryX=0.618;entryY=1.058;entryDx=0;entryDy=0;entryPerimeter=0;" parent="1" source="e3agSbo70QrFWaM-nMXp-120" target="e3agSbo70QrFWaM-nMXp-15" edge="1">
          <mxGeometry relative="1" as="geometry" />
        </mxCell>
        <mxCell id="e3agSbo70QrFWaM-nMXp-120" value="" style="shape=curlyBracket;whiteSpace=wrap;html=1;rounded=1;labelPosition=left;verticalLabelPosition=middle;align=right;verticalAlign=middle;rotation=90;" parent="1" vertex="1">
          <mxGeometry x="-2862.5" y="2247.5" width="13.13" height="200" as="geometry" />
        </mxCell>
        <mxCell id="e3agSbo70QrFWaM-nMXp-123" style="edgeStyle=orthogonalEdgeStyle;rounded=1;orthogonalLoop=1;jettySize=auto;html=1;entryX=0.57;entryY=0.936;entryDx=0;entryDy=0;entryPerimeter=0;" parent="1" source="e3agSbo70QrFWaM-nMXp-122" target="e3agSbo70QrFWaM-nMXp-15" edge="1">
          <mxGeometry relative="1" as="geometry">
            <Array as="points">
              <mxPoint x="-3120" y="2310" />
              <mxPoint x="-2865" y="2310" />
            </Array>
          </mxGeometry>
        </mxCell>
        <mxCell id="e3agSbo70QrFWaM-nMXp-122" value="" style="shape=curlyBracket;whiteSpace=wrap;html=1;rounded=1;labelPosition=left;verticalLabelPosition=middle;align=right;verticalAlign=middle;rotation=90;" parent="1" vertex="1">
          <mxGeometry x="-3131.56" y="2360" width="13.13" height="200" as="geometry" />
        </mxCell>
        <mxCell id="e3agSbo70QrFWaM-nMXp-128" style="edgeStyle=orthogonalEdgeStyle;rounded=1;orthogonalLoop=1;jettySize=auto;html=1;entryX=0.068;entryY=1.007;entryDx=0;entryDy=0;entryPerimeter=0;" parent="1" source="e3agSbo70QrFWaM-nMXp-124" target="e3agSbo70QrFWaM-nMXp-11" edge="1">
          <mxGeometry relative="1" as="geometry">
            <Array as="points">
              <mxPoint x="-2237" y="2760" />
              <mxPoint x="-2169" y="2760" />
            </Array>
          </mxGeometry>
        </mxCell>
        <mxCell id="e3agSbo70QrFWaM-nMXp-124" value="" style="shape=curlyBracket;whiteSpace=wrap;html=1;rounded=1;labelPosition=left;verticalLabelPosition=middle;align=right;verticalAlign=middle;rotation=90;" parent="1" vertex="1">
          <mxGeometry x="-2243.75" y="2844.6800000000003" width="13.13" height="58.75" as="geometry" />
        </mxCell>
        <mxCell id="e3agSbo70QrFWaM-nMXp-129" style="edgeStyle=orthogonalEdgeStyle;rounded=1;orthogonalLoop=1;jettySize=auto;html=1;" parent="1" source="e3agSbo70QrFWaM-nMXp-127" edge="1">
          <mxGeometry relative="1" as="geometry">
            <mxPoint x="-1280" y="2650" as="targetPoint" />
            <Array as="points">
              <mxPoint x="-2183" y="2850" />
              <mxPoint x="-1299" y="2850" />
              <mxPoint x="-1299" y="2650" />
            </Array>
          </mxGeometry>
        </mxCell>
        <mxCell id="e3agSbo70QrFWaM-nMXp-127" value="" style="shape=curlyBracket;whiteSpace=wrap;html=1;rounded=1;labelPosition=left;verticalLabelPosition=middle;align=right;verticalAlign=middle;rotation=90;" parent="1" vertex="1">
          <mxGeometry x="-2190" y="2859.06" width="13.13" height="30" as="geometry" />
        </mxCell>
        <mxCell id="e3agSbo70QrFWaM-nMXp-132" style="edgeStyle=orthogonalEdgeStyle;rounded=1;orthogonalLoop=1;jettySize=auto;html=1;" parent="1" source="e3agSbo70QrFWaM-nMXp-130" edge="1">
          <mxGeometry relative="1" as="geometry">
            <mxPoint x="-1880" y="2850" as="targetPoint" />
            <Array as="points">
              <mxPoint x="-1940" y="2930" />
              <mxPoint x="-1940" y="2890" />
              <mxPoint x="-1880" y="2890" />
            </Array>
          </mxGeometry>
        </mxCell>
        <mxCell id="e3agSbo70QrFWaM-nMXp-130" value="" style="shape=curlyBracket;whiteSpace=wrap;html=1;rounded=1;labelPosition=left;verticalLabelPosition=middle;align=right;verticalAlign=middle;rotation=90;" parent="1" vertex="1">
          <mxGeometry x="-2179.06" y="3088.12" width="13.13" height="30" as="geometry" />
        </mxCell>
        <mxCell id="SK_KU7SZZBIIfhntrLHh-2" style="edgeStyle=orthogonalEdgeStyle;rounded=1;orthogonalLoop=1;jettySize=auto;html=1;exitX=0.1;exitY=0.5;exitDx=0;exitDy=0;exitPerimeter=0;jumpStyle=arc;jumpSize=17;" parent="1" source="e3agSbo70QrFWaM-nMXp-131" target="e3agSbo70QrFWaM-nMXp-32" edge="1">
          <mxGeometry relative="1" as="geometry">
            <mxPoint x="-2851.2799999999997" y="2755.6600000000003" as="targetPoint" />
            <mxPoint x="-2025.989630475582" y="3015.0049999999997" as="sourcePoint" />
            <Array as="points">
              <mxPoint x="-2125" y="3030" />
              <mxPoint x="-2400" y="3030" />
              <mxPoint x="-2400" y="2910" />
              <mxPoint x="-2590" y="2910" />
            </Array>
          </mxGeometry>
        </mxCell>
        <mxCell id="e3agSbo70QrFWaM-nMXp-131" value="" style="shape=curlyBracket;whiteSpace=wrap;html=1;rounded=1;labelPosition=left;verticalLabelPosition=middle;align=right;verticalAlign=middle;rotation=90;" parent="1" vertex="1">
          <mxGeometry x="-2132.0000000000005" y="3078.12" width="13.13" height="50" as="geometry" />
        </mxCell>
        <mxCell id="e3agSbo70QrFWaM-nMXp-140" style="edgeStyle=orthogonalEdgeStyle;rounded=1;orthogonalLoop=1;jettySize=auto;html=1;entryX=0.536;entryY=0.985;entryDx=0;entryDy=0;entryPerimeter=0;" parent="1" source="e3agSbo70QrFWaM-nMXp-136" target="4W0Tc7HnA4C98M1lUFlG-6" edge="1">
          <mxGeometry relative="1" as="geometry">
            <mxPoint x="-1500" y="2490" as="targetPoint" />
            <Array as="points">
              <mxPoint x="-2687" y="2490" />
              <mxPoint x="-1850" y="2490" />
              <mxPoint x="-1850" y="2500" />
              <mxPoint x="-1500" y="2500" />
            </Array>
          </mxGeometry>
        </mxCell>
        <mxCell id="e3agSbo70QrFWaM-nMXp-136" value="" style="shape=curlyBracket;whiteSpace=wrap;html=1;rounded=1;labelPosition=left;verticalLabelPosition=middle;align=right;verticalAlign=middle;rotation=90;" parent="1" vertex="1">
          <mxGeometry x="-2695" y="2782.5" width="15" height="100" as="geometry" />
        </mxCell>
        <mxCell id="e3agSbo70QrFWaM-nMXp-139" style="edgeStyle=orthogonalEdgeStyle;rounded=1;orthogonalLoop=1;jettySize=auto;html=1;" parent="1" source="e3agSbo70QrFWaM-nMXp-137" target="e3agSbo70QrFWaM-nMXp-17" edge="1">
          <mxGeometry relative="1" as="geometry">
            <mxPoint x="-2980" y="2400" as="targetPoint" />
            <Array as="points">
              <mxPoint x="-2792" y="2617" />
              <mxPoint x="-2819" y="2617" />
              <mxPoint x="-2819" y="2410" />
              <mxPoint x="-3000" y="2410" />
            </Array>
          </mxGeometry>
        </mxCell>
        <mxCell id="e3agSbo70QrFWaM-nMXp-137" value="" style="shape=curlyBracket;whiteSpace=wrap;html=1;rounded=1;labelPosition=left;verticalLabelPosition=middle;align=right;verticalAlign=middle;rotation=90;" parent="1" vertex="1">
          <mxGeometry x="-2800" y="2780" width="15" height="100" as="geometry" />
        </mxCell>
        <mxCell id="e3agSbo70QrFWaM-nMXp-141" style="edgeStyle=orthogonalEdgeStyle;rounded=1;orthogonalLoop=1;jettySize=auto;html=1;" parent="1" source="e3agSbo70QrFWaM-nMXp-138" edge="1">
          <mxGeometry relative="1" as="geometry">
            <mxPoint x="-2240" y="2780" as="targetPoint" />
            <Array as="points">
              <mxPoint x="-2595" y="2760" />
              <mxPoint x="-2370" y="2760" />
            </Array>
          </mxGeometry>
        </mxCell>
        <mxCell id="e3agSbo70QrFWaM-nMXp-138" value="" style="shape=curlyBracket;whiteSpace=wrap;html=1;rounded=1;labelPosition=left;verticalLabelPosition=middle;align=right;verticalAlign=middle;rotation=90;" parent="1" vertex="1">
          <mxGeometry x="-2602.5" y="2805" width="15" height="55" as="geometry" />
        </mxCell>
        <mxCell id="e3agSbo70QrFWaM-nMXp-146" style="edgeStyle=orthogonalEdgeStyle;rounded=1;orthogonalLoop=1;jettySize=auto;html=1;jumpStyle=arc;jumpSize=15;" parent="1" source="e3agSbo70QrFWaM-nMXp-145" edge="1">
          <mxGeometry relative="1" as="geometry">
            <mxPoint x="-2590" y="2770" as="targetPoint" />
            <Array as="points">
              <mxPoint x="-2982" y="2420" />
              <mxPoint x="-2610" y="2420" />
            </Array>
          </mxGeometry>
        </mxCell>
        <mxCell id="e3agSbo70QrFWaM-nMXp-145" value="" style="shape=curlyBracket;whiteSpace=wrap;html=1;rounded=1;labelPosition=left;verticalLabelPosition=middle;align=right;verticalAlign=middle;rotation=90;size=0.16666666666666666;" parent="1" vertex="1">
          <mxGeometry x="-2985" y="2430" width="5" height="60" as="geometry" />
        </mxCell>
        <mxCell id="e3agSbo70QrFWaM-nMXp-153" style="edgeStyle=orthogonalEdgeStyle;rounded=1;orthogonalLoop=1;jettySize=auto;html=1;" parent="1" source="e3agSbo70QrFWaM-nMXp-152" target="e3agSbo70QrFWaM-nMXp-34" edge="1">
          <mxGeometry relative="1" as="geometry">
            <mxPoint x="-1570" y="2240" as="targetPoint" />
            <Array as="points">
              <mxPoint x="-1592" y="2340" />
              <mxPoint x="-1740" y="2340" />
              <mxPoint x="-1740" y="2240" />
              <mxPoint x="-1560" y="2240" />
            </Array>
          </mxGeometry>
        </mxCell>
        <mxCell id="e3agSbo70QrFWaM-nMXp-152" value="" style="shape=curlyBracket;whiteSpace=wrap;html=1;rounded=1;labelPosition=left;verticalLabelPosition=middle;align=right;verticalAlign=middle;rotation=90;" parent="1" vertex="1">
          <mxGeometry x="-1592.19" y="2416.25" width="13.13" height="67.5" as="geometry" />
        </mxCell>
        <mxCell id="e3agSbo70QrFWaM-nMXp-159" style="edgeStyle=orthogonalEdgeStyle;rounded=1;orthogonalLoop=1;jettySize=auto;html=1;entryX=0.567;entryY=0.333;entryDx=0;entryDy=0;entryPerimeter=0;jumpStyle=arc;jumpSize=15;exitX=0.1;exitY=0.5;exitDx=0;exitDy=0;exitPerimeter=0;" parent="1" source="e3agSbo70QrFWaM-nMXp-158" target="e3agSbo70QrFWaM-nMXp-13" edge="1">
          <mxGeometry relative="1" as="geometry">
            <mxPoint x="-1810" y="2390" as="targetPoint" />
            <Array as="points">
              <mxPoint x="-1517" y="2445" />
              <mxPoint x="-1517" y="2410" />
              <mxPoint x="-2460" y="2410" />
            </Array>
          </mxGeometry>
        </mxCell>
        <mxCell id="e3agSbo70QrFWaM-nMXp-158" value="" style="shape=curlyBracket;whiteSpace=wrap;html=1;rounded=1;labelPosition=left;verticalLabelPosition=middle;align=right;verticalAlign=middle;rotation=90;" parent="1" vertex="1">
          <mxGeometry x="-1501.87" y="2408.13" width="13.13" height="83.75" as="geometry" />
        </mxCell>
        <mxCell id="e3agSbo70QrFWaM-nMXp-161" value="" style="shape=curlyBracket;whiteSpace=wrap;html=1;rounded=1;labelPosition=left;verticalLabelPosition=middle;align=right;verticalAlign=middle;rotation=90;" parent="1" vertex="1">
          <mxGeometry x="-2085" y="2525" width="13.13" height="108.75" as="geometry" />
        </mxCell>
        <mxCell id="e3agSbo70QrFWaM-nMXp-165" style="edgeStyle=orthogonalEdgeStyle;rounded=1;orthogonalLoop=1;jettySize=auto;html=1;jumpStyle=arc;jumpSize=15;" parent="1" source="e3agSbo70QrFWaM-nMXp-161" edge="1">
          <mxGeometry relative="1" as="geometry">
            <mxPoint x="-2300" y="2280" as="targetPoint" />
            <mxPoint x="-2078" y="2573" as="sourcePoint" />
            <Array as="points">
              <mxPoint x="-2078" y="2462" />
              <mxPoint x="-2079" y="2462" />
              <mxPoint x="-2079" y="2280" />
              <mxPoint x="-2280" y="2280" />
            </Array>
          </mxGeometry>
        </mxCell>
        <mxCell id="e3agSbo70QrFWaM-nMXp-167" style="edgeStyle=orthogonalEdgeStyle;rounded=1;orthogonalLoop=1;jettySize=auto;html=1;jumpStyle=arc;jumpSize=15;" parent="1" source="e3agSbo70QrFWaM-nMXp-166" edge="1">
          <mxGeometry relative="1" as="geometry">
            <mxPoint x="-2100" y="2180" as="targetPoint" />
            <Array as="points">
              <mxPoint x="-1950" y="2420" />
              <mxPoint x="-1880" y="2420" />
              <mxPoint x="-1880" y="2170" />
              <mxPoint x="-2090" y="2170" />
            </Array>
          </mxGeometry>
        </mxCell>
        <mxCell id="e3agSbo70QrFWaM-nMXp-166" value="" style="shape=curlyBracket;whiteSpace=wrap;html=1;rounded=1;labelPosition=left;verticalLabelPosition=middle;align=right;verticalAlign=middle;rotation=90;" parent="1" vertex="1">
          <mxGeometry x="-1956.88" y="2530" width="13.13" height="108.75" as="geometry" />
        </mxCell>
        <mxCell id="jU4q8psLORbUXHxAr8m7-2" style="edgeStyle=orthogonalEdgeStyle;rounded=1;orthogonalLoop=1;jettySize=auto;html=1;" parent="1" edge="1">
          <mxGeometry relative="1" as="geometry">
            <mxPoint x="-2260" y="1790" as="targetPoint" />
            <Array as="points">
              <mxPoint x="-2713" y="2066" />
              <mxPoint x="-2699" y="2066" />
              <mxPoint x="-2699" y="1790" />
            </Array>
            <mxPoint x="-2670" y="2340" as="sourcePoint" />
          </mxGeometry>
        </mxCell>
        <mxCell id="jU4q8psLORbUXHxAr8m7-1" value="" style="shape=curlyBracket;whiteSpace=wrap;html=1;rounded=1;labelPosition=left;verticalLabelPosition=middle;align=right;verticalAlign=middle;rotation=90;" parent="1" vertex="1">
          <mxGeometry x="-2679.21" y="2312.97" width="14.7" height="67.5" as="geometry" />
        </mxCell>
        <mxCell id="q3Ib7wUAKRnM_8V9lSKZ-1" value="LinguagemJogo = {&lt;span style=&quot;border-color: var(--border-color);&quot;&gt;&lt;u style=&quot;font-weight: bold; border-color: var(--border-color);&quot;&gt;NomeJogo&lt;/u&gt;&lt;span style=&quot;border-color: var(--border-color);&quot;&gt;, &lt;b&gt;&lt;u&gt;Linguagem&lt;/u&gt;&lt;/b&gt;&lt;/span&gt;&lt;/span&gt;}" style="text;html=1;align=center;verticalAlign=middle;resizable=0;points=[];autosize=1;strokeColor=none;fillColor=none;" parent="1" vertex="1">
          <mxGeometry x="-2815" y="2985.94" width="260" height="30" as="geometry" />
        </mxCell>
        <mxCell id="q3Ib7wUAKRnM_8V9lSKZ-2" value="GeneroJogo = {&lt;span style=&quot;border-color: var(--border-color);&quot;&gt;&lt;u style=&quot;font-weight: bold; border-color: var(--border-color);&quot;&gt;NomeJogo&lt;/u&gt;&lt;span style=&quot;border-color: var(--border-color);&quot;&gt;, &lt;b&gt;&lt;u&gt;Genero&lt;/u&gt;&lt;/b&gt;&lt;/span&gt;&lt;/span&gt;}" style="text;html=1;align=center;verticalAlign=middle;resizable=0;points=[];autosize=1;strokeColor=none;fillColor=none;" parent="1" vertex="1">
          <mxGeometry x="-2815" y="3082.1800000000003" width="220" height="30" as="geometry" />
        </mxCell>
        <mxCell id="q3Ib7wUAKRnM_8V9lSKZ-3" value="EdicaoJogo = {&lt;span style=&quot;border-color: var(--border-color);&quot;&gt;&lt;u style=&quot;font-weight: bold; border-color: var(--border-color);&quot;&gt;NomeJogo&lt;/u&gt;&lt;span style=&quot;border-color: var(--border-color);&quot;&gt;, &lt;b&gt;&lt;u&gt;Edicao&lt;/u&gt;&lt;/b&gt;&lt;/span&gt;&lt;/span&gt;}" style="text;html=1;align=center;verticalAlign=middle;resizable=0;points=[];autosize=1;strokeColor=none;fillColor=none;" parent="1" vertex="1">
          <mxGeometry x="-2815" y="3140.93" width="220" height="30" as="geometry" />
        </mxCell>
        <mxCell id="q3Ib7wUAKRnM_8V9lSKZ-7" style="edgeStyle=orthogonalEdgeStyle;rounded=1;orthogonalLoop=1;jettySize=auto;html=1;jumpStyle=arc;jumpSize=14;" parent="1" source="q3Ib7wUAKRnM_8V9lSKZ-4" edge="1">
          <mxGeometry relative="1" as="geometry">
            <mxPoint x="-2240" y="2810" as="targetPoint" />
            <Array as="points">
              <mxPoint x="-2672" y="2950" />
              <mxPoint x="-2470" y="2950" />
              <mxPoint x="-2470" y="2810" />
            </Array>
          </mxGeometry>
        </mxCell>
        <mxCell id="q3Ib7wUAKRnM_8V9lSKZ-4" value="" style="shape=curlyBracket;whiteSpace=wrap;html=1;rounded=1;labelPosition=left;verticalLabelPosition=middle;align=right;verticalAlign=middle;rotation=90;" parent="1" vertex="1">
          <mxGeometry x="-2678.43" y="2960" width="13.13" height="58.75" as="geometry" />
        </mxCell>
        <mxCell id="q3Ib7wUAKRnM_8V9lSKZ-10" style="edgeStyle=orthogonalEdgeStyle;rounded=1;orthogonalLoop=1;jettySize=auto;html=1;jumpStyle=arc;jumpSize=14;" parent="1" source="q3Ib7wUAKRnM_8V9lSKZ-5" edge="1">
          <mxGeometry relative="1" as="geometry">
            <mxPoint x="-2470" y="2840" as="targetPoint" />
            <Array as="points">
              <mxPoint x="-2688" y="3030" />
              <mxPoint x="-2470" y="3030" />
            </Array>
          </mxGeometry>
        </mxCell>
        <mxCell id="q3Ib7wUAKRnM_8V9lSKZ-5" value="" style="shape=curlyBracket;whiteSpace=wrap;html=1;rounded=1;labelPosition=left;verticalLabelPosition=middle;align=right;verticalAlign=middle;rotation=90;" parent="1" vertex="1">
          <mxGeometry x="-2694.69" y="3053.4300000000003" width="13.13" height="58.75" as="geometry" />
        </mxCell>
        <mxCell id="q3Ib7wUAKRnM_8V9lSKZ-13" style="edgeStyle=orthogonalEdgeStyle;rounded=1;orthogonalLoop=1;jettySize=auto;html=1;jumpStyle=arc;jumpSize=13;" parent="1" source="q3Ib7wUAKRnM_8V9lSKZ-6" edge="1">
          <mxGeometry relative="1" as="geometry">
            <mxPoint x="-2470" y="2840" as="targetPoint" />
            <Array as="points">
              <mxPoint x="-2688" y="3110" />
              <mxPoint x="-2559" y="3110" />
              <mxPoint x="-2559" y="3030" />
              <mxPoint x="-2470" y="3030" />
            </Array>
          </mxGeometry>
        </mxCell>
        <mxCell id="q3Ib7wUAKRnM_8V9lSKZ-6" value="" style="shape=curlyBracket;whiteSpace=wrap;html=1;rounded=1;labelPosition=left;verticalLabelPosition=middle;align=right;verticalAlign=middle;rotation=90;" parent="1" vertex="1">
          <mxGeometry x="-2694.69" y="3112.18" width="13.13" height="58.75" as="geometry" />
        </mxCell>
        <mxCell id="SK_KU7SZZBIIfhntrLHh-10" style="edgeStyle=orthogonalEdgeStyle;rounded=1;orthogonalLoop=1;jettySize=auto;html=1;entryX=0.294;entryY=0.963;entryDx=0;entryDy=0;entryPerimeter=0;" parent="1" source="SK_KU7SZZBIIfhntrLHh-3" target="e3agSbo70QrFWaM-nMXp-32" edge="1">
          <mxGeometry relative="1" as="geometry">
            <mxPoint x="-2830" y="2870" as="targetPoint" />
            <Array as="points">
              <mxPoint x="-2053" y="3230" />
              <mxPoint x="-2529" y="3230" />
              <mxPoint x="-2529" y="3240" />
              <mxPoint x="-2811" y="3240" />
            </Array>
          </mxGeometry>
        </mxCell>
        <mxCell id="SK_KU7SZZBIIfhntrLHh-3" value="" style="shape=curlyBracket;whiteSpace=wrap;html=1;rounded=1;labelPosition=left;verticalLabelPosition=middle;align=right;verticalAlign=middle;rotation=-90;" parent="1" vertex="1">
          <mxGeometry x="-2059.21" y="3088.2799999999997" width="13.13" height="76.56" as="geometry" />
        </mxCell>
        <mxCell id="SK_KU7SZZBIIfhntrLHh-11" style="edgeStyle=orthogonalEdgeStyle;rounded=1;orthogonalLoop=1;jettySize=auto;html=1;jumpStyle=arc;jumpSize=20;" parent="1" source="SK_KU7SZZBIIfhntrLHh-4" target="e3agSbo70QrFWaM-nMXp-32" edge="1">
          <mxGeometry relative="1" as="geometry">
            <mxPoint x="-2690" y="2910" as="targetPoint" />
            <Array as="points">
              <mxPoint x="-1953" y="3280" />
              <mxPoint x="-2890" y="3280" />
              <mxPoint x="-2890" y="2900" />
              <mxPoint x="-2690" y="2900" />
            </Array>
          </mxGeometry>
        </mxCell>
        <mxCell id="SK_KU7SZZBIIfhntrLHh-4" value="" style="shape=curlyBracket;whiteSpace=wrap;html=1;rounded=1;labelPosition=left;verticalLabelPosition=middle;align=right;verticalAlign=middle;rotation=-90;" parent="1" vertex="1">
          <mxGeometry x="-1959.69" y="3080" width="13.13" height="90.93" as="geometry" />
        </mxCell>
        <mxCell id="J5r571Ynd_vEOk7UBieD-19" style="edgeStyle=orthogonalEdgeStyle;rounded=1;orthogonalLoop=1;jettySize=auto;html=1;" parent="1" source="J5r571Ynd_vEOk7UBieD-18" target="e3agSbo70QrFWaM-nMXp-35" edge="1">
          <mxGeometry relative="1" as="geometry">
            <mxPoint x="-1630" y="1660" as="targetPoint" />
            <Array as="points">
              <mxPoint x="-1731" y="1720" />
              <mxPoint x="-1629" y="1720" />
            </Array>
          </mxGeometry>
        </mxCell>
        <mxCell id="J5r571Ynd_vEOk7UBieD-18" value="" style="shape=curlyBracket;whiteSpace=wrap;html=1;rounded=1;labelPosition=left;verticalLabelPosition=middle;align=right;verticalAlign=middle;rotation=90;size=0;" parent="1" vertex="1">
          <mxGeometry x="-1736.47" y="1731.18" width="13.13" height="26.42" as="geometry" />
        </mxCell>
        <mxCell id="paQJ-hL3Z7gqqdOk6mmr-2" style="edgeStyle=orthogonalEdgeStyle;rounded=1;orthogonalLoop=1;jettySize=auto;html=1;" parent="1" source="paQJ-hL3Z7gqqdOk6mmr-1" edge="1">
          <mxGeometry relative="1" as="geometry">
            <mxPoint x="-1090" y="2154" as="targetPoint" />
            <Array as="points">
              <mxPoint x="-1530" y="2154" />
              <mxPoint x="-1390" y="2154" />
            </Array>
          </mxGeometry>
        </mxCell>
        <mxCell id="paQJ-hL3Z7gqqdOk6mmr-1" value="" style="shape=curlyBracket;whiteSpace=wrap;html=1;rounded=1;labelPosition=left;verticalLabelPosition=middle;align=right;verticalAlign=middle;rotation=90;" parent="1" vertex="1">
          <mxGeometry x="-1536.24" y="2170" width="13.13" height="27.5" as="geometry" />
        </mxCell>
        <mxCell id="paQJ-hL3Z7gqqdOk6mmr-6" value="&lt;h1&gt;&lt;font style=&quot;font-size: 36px;&quot;&gt;Modelo Relacional&lt;/font&gt;&lt;/h1&gt;" style="text;html=1;strokeColor=none;fillColor=none;spacing=5;spacingTop=-20;whiteSpace=wrap;overflow=hidden;rounded=0;" parent="1" vertex="1">
          <mxGeometry x="-2100" y="1360" width="330" height="40" as="geometry" />
        </mxCell>
        <mxCell id="paQJ-hL3Z7gqqdOk6mmr-9" value="" style="shape=note;whiteSpace=wrap;html=1;backgroundOutline=1;darkOpacity=0.05;" parent="1" vertex="1">
          <mxGeometry x="-3010" y="1562.91" width="250" height="194.69" as="geometry" />
        </mxCell>
        <mxCell id="paQJ-hL3Z7gqqdOk6mmr-5" value="&lt;h1&gt;&lt;span style=&quot;background-color: initial;&quot;&gt;Ligações&lt;/span&gt;&lt;/h1&gt;&lt;h1&gt;&lt;span style=&quot;font-size: 12px; font-weight: 400;&quot;&gt;As ligações que estão ligadas em outras tem o propósito de apenas encurtar o caminho, visando deixar o esquema menos poluído.&lt;/span&gt;&lt;/h1&gt;" style="text;html=1;strokeColor=none;fillColor=none;spacing=5;spacingTop=-20;whiteSpace=wrap;overflow=hidden;rounded=0;" parent="1" vertex="1">
          <mxGeometry x="-2990" y="1580.26" width="190" height="160" as="geometry" />
        </mxCell>
        <mxCell id="B_DvqoU687R8TitXIwGn-3" value="" style="shape=curlyBracket;whiteSpace=wrap;html=1;rounded=1;labelPosition=left;verticalLabelPosition=middle;align=right;verticalAlign=middle;rotation=-90;" parent="1" vertex="1">
          <mxGeometry x="-2863.75" y="2221.25" width="5.63" height="90" as="geometry" />
        </mxCell>
        <mxCell id="4W0Tc7HnA4C98M1lUFlG-6" value="Recibo = {&lt;u style=&quot;font-weight: bold;&quot;&gt;IDCompra&lt;/u&gt;, &lt;b&gt;&lt;u&gt;NomeProduto&lt;/u&gt;&lt;/b&gt;,&amp;nbsp;&lt;span style=&quot;border-color: var(--border-color);&quot;&gt;&lt;u style=&quot;font-weight: bold; border-color: var(--border-color);&quot;&gt;CódigoAtivacao&lt;/u&gt;&lt;span style=&quot;border-color: var(--border-color);&quot;&gt;, PrecoProduto, Quantidade&lt;/span&gt;&lt;/span&gt;}" style="text;html=1;align=center;verticalAlign=middle;resizable=0;points=[];autosize=1;strokeColor=none;fillColor=none;" vertex="1" parent="1">
          <mxGeometry x="-1751.56" y="2453.75" width="470" height="30" as="geometry" />
        </mxCell>
      </root>
    </mxGraphModel>
  </diagram>
</mxfile>
